# xmcd
#
# Track frame offsets:
#	150
#	14548
#	34166
#	51631
#	73225
#	85153
#	103769
#	123285
#	146549
#
# Disc length: 2311 seconds
# Revision: 0
# Processed by: cddbd v1.5.2PL0 Copyright (c) Steve Scherf et al.
# Submitted via: dBpowerAMP V12.0
#
DISCID=82090509
DTITLE=John Mayall - Big Man Blues
DYEAR=2012
DGENRE=Blues - Rock
TTITLE0=Why Worry
TTITLE1=Road Show
TTITLE2=Mama Talk to Your Daughter
TTITLE3=A Big Man
TTITLE4=Lost and Gone
TTITLE5=John Lee Boogie
TTITLE6=Reaching for a Mountai
TTITLE7=Baby, What You Want Me to Do (live)
TTITLE8=Mexico City (live)
EXTD=
EXTT0=
EXTT1=
EXTT2=
EXTT3=
EXTT4=
EXTT5=
EXTT6=
EXTT7=
EXTT8=
PLAYORDER=
